<?xml version="1.0" encoding="UTF-8" standalone="no"?>
<svg xmlns="http://www.w3.org/2000/svg" xmlns:inkscape="http://www.inkscape.org/namespaces/inkscape" xmlns:sodipodi="http://sodipodi.sourceforge.net/DTD/sodipodi-0.dtd" xmlns:svg="http://www.w3.org/2000/svg" id="svg511" width="208.99269" height="292.02603" preserveAspectRatio="xMidYMid meet" version="1.0" viewBox="0 0 156.74452 219.01952" zoomAndPan="magnify" inkscape:version="1.1.2 (b8e25be8, 2022-02-05)" sodipodi:docname="logo.svg">
    <sodipodi:namedview id="namedview513" bordercolor="#666666" borderopacity="1.0" fit-margin-bottom="10" fit-margin-left="10" fit-margin-right="10" fit-margin-top="10" lock-margins="true" pagecolor="#ffffff" showgrid="false" inkscape:current-layer="svg511" inkscape:cx="97.577389" inkscape:cy="249.66353" inkscape:pagecheckerboard="true" inkscape:pageopacity="0.0" inkscape:pageshadow="2" inkscape:window-height="1096" inkscape:window-maximized="0" inkscape:window-width="1537" inkscape:window-x="429" inkscape:window-y="189" inkscape:zoom="1.486"/>
    <defs id="defs337">
        <g id="g326"/>
        <clipPath id="d6efb9a2b2">
            <path id="path328" d="M 18.753906,110.86328 H 160.5 v 77.92969 H 18.753906 Z m 0,0" clip-rule="nonzero"/>
        </clipPath>
        <clipPath id="6510f1131b">
            <path id="path331" d="M 42.390625,187.33594 H 136 v 102 H 42.390625 Z m 0,0" clip-rule="nonzero"/>
        </clipPath>
        <clipPath id="fd6966be5a">
            <path id="path334" d="M 78.335938,85.316406 H 134.58594 V 113.06641 H 78.335938 Z m 0,0" clip-rule="nonzero"/>
        </clipPath>
    </defs>
    <g id="g681" style="fill:#ffffff" transform="translate(-11.255488,-77.816406)">
        <g id="g341" clip-path="url(#d6efb9a2b2)" style="fill:#ffffff">
            <path id="path339" fill="#5789b0" fill-opacity="1" fill-rule="nonzero" d="M 89.628906,185.73047 H 22.167969 l 11.121093,-55.92969 h 3.703126 l -8.988282,49.83594 c -0.07813,0.43359 0.03125,0.8789 0.304688,1.22265 0.273437,0.34375 0.683594,0.55469 1.121094,0.58204 l 60.097656,3.39843 c 0.02734,0 0.05469,0.004 0.07813,0.004 0.0039,0 0.0078,0 0.01172,0 0.0039,0 0.0078,0 0.0078,0 0,0 0.0039,0 0.0039,0 0.0078,0 0.01563,0 0.02344,0 0.01953,0 0.04297,-0.004 0.0625,-0.004 0.08203,-0.004 60.109376,-3.39843 60.109376,-3.39843 0.4414,-0.0273 0.85156,-0.23829 1.12109,-0.58204 0.27344,-0.34375 0.38672,-0.78906 0.3086,-1.22265 l -8.99219,-49.83594 h 3.70703 l 11.12109,55.92969 z M 41.84375,120.26172 c 1.117188,0.42578 2.789062,0.98828 5.207031,1.63281 L 40.796875,158.875 c -0.07422,0.44531 0.05078,0.90234 0.34375,1.24609 0.289063,0.34375 0.71875,0.54297 1.171875,0.54297 4.785156,0.008 11.542969,0.33985 16.558594,1.87891 15.515625,4.76562 24.125,13.66406 28.898437,18.82812 L 32.820312,170.26562 Z m 21.636719,-4.75 c 13.320312,4.08984 20.617187,11.79687 24.609375,16.125 v 45.58984 c -5.261719,-5.46094 -13.941406,-13.19922 -28.3125,-17.61328 -4.753906,-1.45703 -10.84375,-1.90625 -15.644532,-1.99609 l 7.382813,-43.67188 c 4.832031,0.0859 8.851563,0.61328 11.964844,1.56641 z m 52.296871,0 c 3.11329,-0.95313 7.12891,-1.48047 11.96094,-1.56641 l 7.38281,43.67188 c -4.79687,0.0898 -10.88671,0.53906 -15.64453,1.99609 -14.36718,4.41406 -23.046872,12.15234 -28.308591,17.61328 v -45.58984 c 3.988281,-4.32813 11.285161,-12.03516 24.609371,-16.125 z m -83.499996,57.77344 36.050781,7.28515 -36.988281,-2.09375 z m 115.640626,5.1914 -36.99219,2.09375 36.05469,-7.28515 z m -10.50391,-58.21484 9.01953,50.0039 -54.949215,11.10547 c 4.773437,-5.16406 13.386715,-14.0625 28.898435,-18.82812 5.01563,-1.53906 11.77344,-1.8711 16.5586,-1.87891 0.45312,0 0.88281,-0.19922 1.17578,-0.54297 0.29297,-0.34375 0.41797,-0.80078 0.33984,-1.24609 l -6.25,-36.98047 c 2.41406,-0.64453 4.08984,-1.20703 5.20703,-1.63281 z m 11.32813,7.71094 c -0.14453,-0.71875 -0.77344,-1.23438 -1.51172,-1.23438 h -5.51953 l -1.61328,-8.94922 c -0.0937,-0.5039 -0.41797,-0.9414 -0.89063,-1.14453 -0.47266,-0.20312 -0.99609,-0.16797 -1.42578,0.10938 -0.125,0.0664 -1.67188,0.90625 -6.08984,2.10547 l -1.13672,-6.71485 c -0.125,-0.73828 -0.76563,-1.27734 -1.51563,-1.27734 0,0 -0.004,0 -0.004,0 -5.80078,0.008 -10.4336,0.57031 -14.16407,1.71484 -13.33593,4.09375 -20.914059,11.55469 -25.242184,16.19531 -4.328125,-4.64062 -11.90625,-12.10156 -25.242187,-16.19531 -3.730469,-1.14453 -8.363281,-1.70703 -14.167969,-1.71484 -0.753906,0 -1.394531,0.53906 -1.519531,1.27734 l -1.132813,6.71485 c -4.417968,-1.19922 -5.96875,-2.03907 -6.089844,-2.10547 -0.429687,-0.27735 -0.957031,-0.3125 -1.425781,-0.10938 -0.476562,0.20313 -0.800781,0.64063 -0.890625,1.14453 l -1.613281,8.94922 h -5.523437 c -0.734376,0 -1.367188,0.51563 -1.507813,1.23438 l -11.730469,58.99218 c -0.08984,0.44922 0.02734,0.91407 0.320313,1.26953 0.292969,0.35547 0.726562,0.5586 1.1875,0.5586 H 158.96094 c 0.46093,0 0.89843,-0.20313 1.1914,-0.5586 0.29297,-0.35546 0.41016,-0.82031 0.32032,-1.26953 l -11.73047,-58.99218" style="fill:#ffffff"/>
        </g>
        <g id="g345" clip-path="url(#6510f1131b)" style="fill:#ffffff">
            <path id="path343" fill="#5789b0" fill-opacity="1" fill-rule="nonzero" d="m 127.20313,161.88672 8.67578,-36.10547 V 114.01953 H 107.375 V 89.394531 L 86.855469,78.328125 c 0.140625,-0.828125 0.277343,-1.519531 0.277343,-2.351563 0,-5.808593 -4.683593,-10.375 -10.328124,-10.375 -5.644532,0 -10.328126,4.703126 -10.328126,10.375 0,5.671876 4.683594,10.375 10.328126,10.375 3.441406,0 6.472656,-1.660156 8.398437,-4.289062 l 18.039065,9.824219 V 113.88281 H 42.65625 v 11.34375 l 8.675781,36.66016 h 16.109375 v 100.57422 h -22.71875 v 27.39062 H 133.8125 V 262.46094 H 111.08984 V 161.88672 Z M 76.804688,82.203125 c -3.441407,0 -6.195313,-2.769531 -6.195313,-6.226563 0,-3.457031 2.753906,-6.226562 6.195313,-6.226562 C 80.246094,69.75 83,72.519531 83,75.976562 c 0,3.457032 -2.753906,6.226563 -6.195312,6.226563 z M 54.636719,157.73437 46.785156,124.94922 v -6.91797 h 84.824214 v 6.91797 l -7.84765,32.78515 H 110.95313 V 140.71875 H 67.441406 v 17.01562 z m 75.042971,108.875 v 19.09375 H 48.851562 V 266.60937 Z M 71.570312,262.46094 V 144.87109 h 35.390628 v 117.58985 z m 0,0" style="fill:#ffffff"/>
        </g>
        <g id="g349" clip-path="url(#fd6966be5a)" style="fill:#ffffff">
            <path id="path347" fill="#5789b0" fill-opacity="1" fill-rule="nonzero" d="m 129.22266,143.27734 5.20703,-21.73437 v -7.07813 H 117.32422 V 99.640625 l -12.30859,-6.664063 c 0.082,-0.5 0.16406,-0.914062 0.16406,-1.414062 0,-3.5 -2.8086,-6.246094 -6.195315,-6.246094 -3.390625,0 -6.199219,2.832032 -6.199219,6.246094 0,3.414062 2.808594,6.246094 6.199219,6.246094 2.062505,0 3.882815,-1 5.039065,-2.582032 l 10.82422,5.910158 v 13.24219 H 78.492188 v 6.83203 l 5.203124,22.0664 h 9.667969 v 60.54688 H 79.730469 v 16.49219 H 133.1875 V 203.82422 H 119.55469 V 143.27734 Z M 98.984375,95.308594 c -2.066406,0 -3.71875,-1.664063 -3.71875,-3.746094 0,-2.082031 1.652344,-3.75 3.71875,-3.75 2.062505,0 3.714845,1.667969 3.714845,3.75 0,2.082031 -1.65234,3.746094 -3.714845,3.746094 z M 85.679688,140.78125 80.96875,121.04297 v -4.16406 h 50.89844 v 4.16406 l -4.71094,19.73828 h -7.68359 V 130.53906 H 93.363281 v 10.24219 z m 45.031252,65.54297 v 11.49219 H 82.210938 v -11.49219 z m -34.86719,-2.5 v -70.78906 h 21.23438 v 70.78906 z m 0,0" style="fill:#ffffff"/>
        </g>
    </g>
</svg>
